<svg width="76" height="76" viewBox="0 0 76 76" fill="none" xmlns="http://www.w3.org/2000/svg">
<path d="M61.4562 39.1698C61.2335 39.0577 61.7366 38.0936 62.4219 35.4521C62.4219 35.4521 63.2162 32.3791 64.3906 29.7813C64.4887 29.571 64.7254 29.0399 65.2846 28.7611C65.3967 28.705 65.9418 28.4262 66.3748 28.677C66.8358 28.9277 66.8639 29.585 66.8919 29.9074C66.9286 30.4603 66.8076 31.0123 66.543 31.4992C64.7394 34.9506 64.3906 35.4521 64.3906 35.4521C62.3222 38.6387 61.6525 39.2804 61.4562 39.1698ZM74.5065 31.2328C74.8834 31.4571 75.3444 31.7219 75.4565 32.2109C75.7353 33.4258 73.5143 34.9911 71.879 35.6748C71.653 35.7655 71.4245 35.8497 71.1937 35.9271C70.999 35.9972 70.6922 36.1093 70.2997 36.1919C69.4758 36.3881 68.9166 36.3476 68.9026 36.4862C68.8761 36.6404 69.5739 36.6949 70.0084 37.2961C70.091 37.4207 70.3153 37.7291 70.2732 38.078C70.2452 38.3428 70.0349 38.7353 68.6659 39.3084C67.9033 39.6403 67.1069 39.8883 66.2907 40.0482C64.3765 40.4111 62.0154 40.6915 61.9874 40.5092C61.9733 40.4251 62.4203 40.3566 63.6227 39.8395C64.131 39.6238 64.6252 39.3762 65.1023 39.0982C65.4808 38.8754 65.7736 38.6652 66.0119 38.497C66.501 38.1481 66.7938 37.9113 66.8779 37.8413C67.1006 37.659 67.4074 37.3802 67.6597 37.0033C67.7843 36.8071 67.8279 36.709 67.842 36.6108C67.898 36.3616 67.7999 36.2479 67.856 36.0813C67.9385 35.871 68.1768 35.7869 68.289 35.7449C69.1409 35.4381 70.3137 34.7668 70.8168 34.4319C71.3479 34.083 71.7388 33.8027 71.893 33.2872C72.0472 32.7701 71.9491 32.0427 71.6002 31.9041C71.488 31.8621 71.3058 31.8621 71.2233 31.7359C71.1532 31.6238 71.2077 31.4836 71.2233 31.4431C71.3899 30.9821 73.1499 30.451 74.5065 31.2328ZM72.5082 41.8518C72.2559 41.1945 71.3058 41.0263 70.6221 40.9157C69.9788 40.8036 69.4898 40.8457 68.736 40.9157C67.842 40.9998 67.1006 41.1525 66.515 41.2927C64.7254 41.7256 63.5947 41.9904 63.5947 42.3268C63.5947 42.6477 65.2005 42.914 68.4276 43.4295C70.5925 43.78 71.5425 43.8765 72.1313 43.2769C72.4802 42.8984 72.6889 42.3113 72.5082 41.8518ZM70.9289 42.4935C70.7607 42.8579 69.9788 42.8299 68.4431 42.7037C66.2627 42.5075 65.16 42.4109 65.16 42.2427C65.16 42.1181 65.8577 42.0184 67.2548 41.7957C67.2828 41.7957 67.856 41.6976 68.6254 41.6415C69.0428 41.6135 69.3636 41.5995 69.7421 41.6275C70.6221 41.6976 70.7887 41.9219 70.8323 41.9904C70.9289 42.1166 71.013 42.3268 70.9289 42.4935Z" fill="url(#paint0_linear_297_116)"/>
<path fill-rule="evenodd" clip-rule="evenodd" d="M59.9916 32.3649C59.9518 31.8694 59.8956 31.3754 59.8234 30.8837V30.8697C59.7542 29.6809 59.5954 28.499 59.3484 27.3342C58.0214 21.1042 54.4999 17.0797 53.2851 15.7246C48.0176 9.84356 41.4777 8.0431 38.9499 7.46838C36.9096 7.10549 24.364 5.0792 13.2981 13.6158C11.1768 15.2512 1.29918 23.3112 1.00637 36.4299C0.699546 50.4567 11.5272 61.5647 22.1446 65.3089C30.499 68.2556 38.5606 66.5237 39.9311 66.2029C41.4808 65.84 46.3714 64.5955 50.9395 61.3404C51.6758 60.826 52.3757 60.2613 53.0343 59.6505C53.9844 58.7565 56.7645 56.115 58.0089 51.8397C58.2161 51.1388 58.3267 50.5345 58.3983 50.1498L58.4139 50.0657C57.3898 50.0105 56.3635 50.0105 55.3394 50.0657C55.2833 50.0657 55.2288 50.0657 55.1587 50.0517C55.0591 50.035 54.9608 50.0116 54.8644 49.9816C54.8083 49.9256 54.7538 49.8695 54.6977 49.829C54.5459 49.6932 54.3822 49.5712 54.2087 49.4645C53.0483 48.7387 51.2338 48.2637 49.1935 48.2637C45.9508 48.2637 43.2829 49.4505 42.92 50.9737H47.7669C47.893 50.9737 48.2699 51.0158 48.5643 51.2946C48.6796 51.3989 48.7465 51.5126 48.7824 51.5718C48.8664 51.7242 48.9203 51.8913 48.9412 52.064C49.0814 53.1947 48.8291 54.0202 48.6609 54.3971C48.4475 54.8659 48.1936 55.2459 48.0503 55.4609L48.0332 55.4873C47.7436 55.8856 47.416 56.2549 47.0551 56.59C46.7 56.9327 46.3947 57.1663 46.1222 57.375L46.0131 57.4591L45.9789 57.484C45.6492 57.7319 45.3088 57.9652 44.9587 58.1834C44.1704 58.6481 43.3205 58.9994 42.434 59.2269C42.4488 59.084 42.4571 58.9406 42.459 58.797C42.459 58.0074 42.2752 57.2707 41.9559 56.6352C41.8341 56.3884 41.6891 56.1537 41.5229 55.9343C41.2986 58.2114 39.1898 60.0975 36.3816 60.7252C36.1013 60.7672 35.8225 60.7953 35.5437 60.8233C34.9425 60.8794 34.3413 60.9214 33.7401 60.9354C33.4333 60.9495 33.1265 60.9495 32.8212 60.9495H32.8181C18.3179 60.9495 6.56661 49.8134 6.56661 36.081C6.56661 22.3471 18.3163 11.2126 32.8181 11.2126C42.9885 11.2126 51.8039 16.6887 56.1649 24.7082C56.1675 24.7134 56.1701 24.7186 56.1727 24.7238H56.1649C56.9396 26.1461 57.5669 27.6439 58.037 29.1938C58.7222 31.4349 59.0702 33.7655 59.0696 36.1091V36.1869C59.0668 37.4055 58.9689 38.6219 58.7768 39.8252L58.7799 39.8221L58.7768 39.8377C58.931 39.657 59.0696 39.4483 59.1973 39.2381C59.7222 37.7273 60.029 35.8614 60.0337 33.8289V33.7619C60.0337 33.2959 60.0183 32.8301 59.9916 32.3649Z" fill="url(#paint1_linear_297_116)"/>
<path fill-rule="evenodd" clip-rule="evenodd" d="M24.2414 26.4152C24.2282 26.3497 24.2178 26.2837 24.2102 26.2174L24.5653 26.8451C24.5629 26.7568 24.5614 26.6686 24.5607 26.5803L24.2102 26.2174L23.8068 20.8799C23.7432 19.9314 24.0592 18.9964 24.6852 18.281C25.3112 17.5656 26.196 17.1284 27.1445 17.0656L29.8701 16.8849C30.177 16.8631 30.4791 16.8803 30.7704 16.9348C31.3363 16.9067 31.9036 16.9459 32.4602 17.0516C33.9368 17.3354 35.2837 18.0842 36.3041 19.1885C42.3977 18.8272 47.9404 22.702 49.6939 28.549L50.0163 30.6734L50.0209 30.7061L50.0303 30.7014L50.1019 31.1546L50.1144 31.1905L50.239 32.0004L51.4133 39.5869L51.4414 39.8049L51.566 40.593L51.622 40.998V41.0821L51.6236 41.1553C51.7765 42.2496 52.7116 43.0645 53.8165 43.0663C54.6436 43.0663 55.3522 42.6053 55.7385 41.9387L55.7572 41.892L55.9129 41.5291L56.1621 40.9419C56.1866 40.883 56.2232 40.83 56.2696 40.7862C56.405 40.6469 56.6115 40.6037 56.7913 40.6771L56.9455 40.7472V40.7612L57.6667 41.0618L58.6915 41.487C58.6993 41.4948 58.7071 41.4979 58.7133 41.5026C58.7207 41.5056 58.7275 41.5098 58.7335 41.5151L58.7476 41.5306C58.9158 41.6552 58.9859 41.878 58.9017 42.0742L58.5871 42.8249L58.5793 42.8561V42.8716C58.4688 43.2766 58.3146 43.6535 58.1043 44.0164C58.0981 44.0226 58.095 44.0304 58.0919 44.0366C58.0872 44.0444 58.0841 44.0522 58.0763 44.0584C58.0688 44.0697 58.0615 44.0811 58.0545 44.0927L58.0467 44.1052L58.042 44.1145L58.0077 44.1706C58.0077 44.1768 58.0031 44.1799 58 44.183C57.9968 44.1877 57.9937 44.1908 57.9937 44.1986C57.0437 45.6938 55.2962 46.7404 53.5237 46.7404H52.3354C50.2014 46.7343 48.3242 45.3288 47.7174 43.2828L47.6972 43.2049C47.6831 43.1614 47.6712 43.1172 47.6613 43.0726L47.6504 43.0258H47.6473L47.6832 43.1925C47.6691 43.1484 47.6572 43.1037 47.6473 43.0585L47.6395 43.0243H47.6271C47.6017 42.9323 47.583 42.8386 47.571 42.7439L47.2907 41.5151L47.2766 41.459C47.2519 41.3817 47.2337 41.3026 47.2221 41.2223L47.1661 40.9575V41.054V41.0509V41.1101C47.1547 41.0776 47.152 41.0427 47.1583 41.0089L47.1598 41.0026L47.1583 40.9871C47.1549 40.9722 47.1528 40.9571 47.152 40.9419C47.152 40.917 47.152 40.8874 47.1489 40.8578L47.138 40.8033L47.1225 40.7332V40.6912L47.1178 40.6616L47.11 40.6725L47.0944 40.6912L47.0913 40.6943L47.0882 40.6974L47.0804 40.7021C47.0726 40.7067 47.0679 40.7098 47.0679 40.7176L47.0461 40.607L47.0399 40.5681L47.0259 40.4949C46.8228 39.5746 46.2545 38.7763 45.4513 38.2833C44.9194 37.9748 44.3155 37.8125 43.7006 37.8129C43.5885 37.8129 43.4764 37.8129 43.3658 37.8269C43.3097 37.8269 43.2537 37.8269 43.1976 37.8409C43.0328 37.8702 42.8696 37.9076 42.7085 37.9531L42.5839 37.9951C42.4998 38.0232 42.4282 38.0496 42.3596 38.0777C42.3295 38.0863 42.3003 38.0977 42.2724 38.1119C42.224 38.1344 42.1762 38.1583 42.1291 38.1836L42.0388 38.2319L41.9827 38.2677L41.9267 38.302L41.8021 38.3861C41.7865 38.3861 41.7725 38.4001 41.7585 38.4141C41.7164 38.429 41.6781 38.4529 41.6463 38.4842C41.6247 38.4991 41.6039 38.5152 41.584 38.5325L41.5217 38.5808C41.4769 38.6091 41.4351 38.6419 41.3971 38.6789C41.3535 38.7069 41.3115 38.749 41.2834 38.777L41.1853 38.8751L41.151 38.9172C41.1406 38.932 41.1292 38.946 41.1168 38.9592C41.1168 38.9732 41.1012 38.9873 41.0887 39.0013C41.0668 39.0213 41.0479 39.0444 41.0327 39.0698C41.0175 39.0854 41.0034 39.102 40.9906 39.1196C40.9775 39.1365 40.9634 39.1526 40.9486 39.1679C40.9172 39.2027 40.889 39.2402 40.8645 39.2801C40.8287 39.3213 40.7973 39.3662 40.771 39.414C40.76 39.4415 40.7442 39.4668 40.7243 39.4888C40.7068 39.5335 40.6838 39.5759 40.6558 39.6149C40.6402 39.6367 40.6308 39.657 40.6199 39.6772C40.6107 39.6991 40.5992 39.72 40.5857 39.7395C40.5849 39.7473 40.5823 39.7548 40.5779 39.7613C40.5748 39.7691 40.5717 39.7769 40.5717 39.7831C40.5636 39.8045 40.5543 39.8253 40.5436 39.8454C40.5327 39.8672 40.5218 39.8875 40.5156 39.9077C40.5081 39.9343 40.4988 39.9604 40.4875 39.9856C40.4761 40.0108 40.4667 40.0368 40.4595 40.0635V40.0759L40.4393 40.146L40.4175 40.2161V40.2301L40.3972 40.308C40.3894 40.3314 40.3816 40.3547 40.3754 40.3843C40.3597 40.4347 40.3457 40.4856 40.3334 40.537V40.5525C40.3273 40.5777 40.3226 40.6032 40.3193 40.6289C40.3162 40.6522 40.3131 40.6756 40.3053 40.7052C40.2913 40.7612 40.2773 40.8173 40.2773 40.8734C40.2769 40.901 40.2748 40.9286 40.2711 40.9559C40.2667 40.9838 40.2641 41.0119 40.2633 41.04C40.262 41.0452 40.2609 41.0504 40.2602 41.0556L40.257 41.0681L40.2539 41.0821C40.2493 41.1101 40.2492 41.1382 40.2492 41.1662V47.1734H40.2088V49.3383C40.2028 50.5169 39.2489 51.4708 38.0703 51.4768H32.6222C31.4436 51.4725 30.4889 50.5185 30.4838 49.3399V46.633C30.2455 44.817 28.6401 43.4966 26.8123 43.6133C24.9844 43.73 23.56 45.2437 23.5545 47.0753V47.1734H23.5125V49.3539C23.5145 49.9213 23.2901 50.466 22.8889 50.8672C22.4877 51.2684 21.943 51.4929 21.3756 51.4908H15.9259C14.7473 51.4857 13.7933 50.531 13.7891 49.3523V36.095C13.7891 36.0016 13.7953 35.9081 13.8062 35.8178C13.9417 31.2341 17.4274 27.4759 21.8927 26.8871C21.8927 26.9852 21.9067 27.0974 21.9207 27.1955C22.05 27.9244 22.2338 28.6206 22.4191 29.3199C22.5313 29.7451 22.6434 30.1703 22.7446 30.6033C22.9502 31.4833 23.2212 32.2309 23.5187 33.0548L23.7212 33.6217C24.095 34.6886 24.489 35.458 24.8659 36.1931L25.0077 36.4719C25.283 37.05 25.6006 37.607 25.9577 38.1384L25.9889 38.1851L26.0418 38.2599L26.0559 38.2739C26.154 38.4281 26.2646 38.5667 26.3767 38.7069L26.4546 38.8035C26.5138 38.8689 26.5761 38.9343 26.6415 39.0013C27.09 39.4343 27.942 40.16 29.2549 40.565C29.7315 40.7114 30.2066 40.7301 30.6832 40.6865L35.7886 38.1929L30.571 32.7962C30.2346 33.8366 29.7175 34.5718 29.068 34.8381L30.8747 38.0465C30.6382 38.1817 30.3681 38.2466 30.096 38.2334C29.7879 38.2109 29.4894 38.117 29.2238 37.9593L29.1989 37.9671C29.1148 37.925 29.0307 37.883 28.9606 37.8269C28.6076 37.5916 28.3 37.2946 28.0526 36.9501C27.0573 35.7944 26.1259 33.9394 25.4983 31.7278L25.492 31.7044C25.4795 31.6593 25.467 31.6141 25.4547 31.5689C25.4409 31.5316 25.4274 31.4943 25.4142 31.4568C25.4042 31.4475 25.3944 31.4382 25.3846 31.4288C25.372 31.3758 25.3595 31.3229 25.3472 31.2699C25.0988 30.5472 24.9097 29.8055 24.7818 29.052C24.5342 28.2032 24.3878 27.3435 24.2523 26.4822L24.2414 26.4152ZM42.3192 30.0815C42.1125 29.7375 42.0057 29.3427 42.0108 28.9415C42.0068 27.8729 42.7639 26.9527 43.8133 26.7508C44.8626 26.5489 45.9071 27.1223 46.3001 28.116C46.4107 28.3823 46.4668 28.6611 46.4668 28.9695V29.0583C46.0588 28.3997 45.3413 27.9968 44.5666 27.9914C43.9436 27.9914 43.3845 28.2437 42.9811 28.6486C42.5947 29.0305 42.3585 29.5397 42.3192 30.0815Z" fill="url(#paint2_linear_297_116)"/>
<defs>
<linearGradient id="paint0_linear_297_116" x1="61.4028" y1="40.574" x2="74.2227" y2="34.3988" gradientUnits="userSpaceOnUse">
<stop stop-color="#C2D8FF"/>
<stop offset="1" stop-color="#3373FF"/>
</linearGradient>
<linearGradient id="paint1_linear_297_116" x1="59.0501" y1="40.0446" x2="10.741" y2="50.0051" gradientUnits="userSpaceOnUse">
<stop stop-color="#C2D8FF"/>
<stop offset="1" stop-color="#6A9CFF"/>
</linearGradient>
<linearGradient id="paint2_linear_297_116" x1="18.497" y1="42.803" x2="58.9376" y2="34.1832" gradientUnits="userSpaceOnUse">
<stop stop-color="#0954FF"/>
<stop offset="1" stop-color="#6C9EFF"/>
</linearGradient>
</defs>
</svg>
