<?xml version="1.0" standalone="no"?><!DOCTYPE svg PUBLIC "-//W3C//DTD SVG 1.1//EN" "http://www.w3.org/Graphics/SVG/1.1/DTD/svg11.dtd"><svg t="1668062142933" class="icon" viewBox="0 0 1024 1024" version="1.1" xmlns="http://www.w3.org/2000/svg" p-id="20505" xmlns:xlink="http://www.w3.org/1999/xlink" width="200" height="200"><path d="M397.994667 136.021333v261.973334h-261.973334v-261.973334h261.973334z m0-72.021333h-261.973334c-39.808 0-72.021333 32.213333-72.021333 72.021333v261.973334c0 39.808 32.213333 72.021333 72.021333 72.021333h261.973334c39.808 0 72.021333-32.213333 72.021333-72.021333v-261.973334c0-39.808-32.213333-72.021333-72.021333-72.021333z m490.026666 72.021333v261.973334h-262.016v-261.973334h261.973334z m0-72.021333h-262.016c-39.808 0-72.021333 32.213333-72.021333 72.021333v261.973334c0 39.808 32.213333 72.021333 72.021333 72.021333h261.973334c39.808 0 72.021333-32.213333 72.021333-72.021333v-261.973334c0-39.808-32.213333-72.021333-72.021333-72.021333zM397.994667 626.005333v261.973334h-261.973334v-261.973334h261.973334z m0-72.021333h-261.973334c-39.808 0-72.021333 32.213333-72.021333 72.021333v261.973334c0 39.808 32.213333 72.021333 72.021333 72.021333h261.973334c39.808 0 72.021333-32.213333 72.021333-72.021333v-261.973334c0-39.808-32.213333-72.021333-72.021333-72.021333z m490.026666 72.021333v261.973334h-262.016v-261.973334h261.973334z m0-72.021333h-262.016c-39.808 0-72.021333 32.213333-72.021333 72.021333v261.973334c0 39.808 32.213333 72.021333 72.021333 72.021333h261.973334c39.808 0 72.021333-32.213333 72.021333-72.021333v-261.973334c0-39.808-32.213333-72.021333-72.021333-72.021333z" p-id="20506"></path></svg>