<?xml version="1.0" standalone="no"?><!DOCTYPE svg PUBLIC "-//W3C//DTD SVG 1.1//EN" "http://www.w3.org/Graphics/SVG/1.1/DTD/svg11.dtd"><svg t="1663054170805" class="icon" viewBox="0 0 1024 1024" version="1.1" xmlns="http://www.w3.org/2000/svg" p-id="6631" xmlns:xlink="http://www.w3.org/1999/xlink" width="32" height="32"><path d="M983.508514 312.661499a510.890241 510.890241 0 0 0-109.653242-162.730531 509.652909 509.652909 0 0 0-162.773198-109.653242A509.482242 509.482242 0 0 0 511.78624 0.000427c-69.119942 0-136.14922 13.567989-199.3385 40.234633a509.012909 509.012909 0 0 0-162.730531 109.695908A509.652909 509.652909 0 0 0 40.106633 312.661499 513.407572 513.407572 0 0 0 0 512c0 69.119942 13.567989 136.14922 40.234633 199.338501a509.012909 509.012909 0 0 0 109.695909 162.730531 509.652909 509.652909 0 0 0 162.730531 109.653242c63.146614 26.709311 130.133225 40.2773 199.3385 40.277299a510.890241 510.890241 0 0 0 362.069032-149.930541 509.652909 509.652909 0 0 0 109.653242-162.730531c26.709311-63.146614 40.2773-130.133225 40.2773-199.338501 0-69.205276-13.781322-136.14922-40.490633-199.338501zM511.871573 949.972968c-241.493132 0-437.972968-196.43717-437.972968-437.972968 0-241.493132 196.479836-437.972968 437.972968-437.972968S949.887208 270.464201 949.887208 512c0 241.493132-196.479836 437.972968-438.015635 437.972968z m243.455798-414.122321a36.821303 36.821303 0 0 0-36.47997 31.445307 209.237159 209.237159 0 0 1-206.719828 177.919852 209.578492 209.578492 0 0 1-206.975827-177.919852 36.906636 36.906636 0 1 0-72.959939 11.306657 280.831766 280.831766 0 0 0 79.701266 157.439869A281.087766 281.087766 0 0 0 511.999573 819.029077c75.60527 0 146.773211-29.439975 200.1065-82.901264a280.106433 280.106433 0 0 0 79.743934-157.482535 36.991969 36.991969 0 0 0-36.522636-42.751965z m-421.887649-102.058582a64.08528 64.08528 0 1 0 0-128.17056 64.08528 64.08528 0 0 0 0 128.17056z m357.119703 0a64.08528 64.08528 0 1 0 0.042666-128.17056 64.08528 64.08528 0 0 0 0 128.17056z" p-id="6632"></path></svg>