<?xml version="1.0" standalone="no"?><!DOCTYPE svg PUBLIC "-//W3C//DTD SVG 1.1//EN" "http://www.w3.org/Graphics/SVG/1.1/DTD/svg11.dtd"><svg t="1675770405019" class="icon" viewBox="0 0 1024 1024" version="1.1" xmlns="http://www.w3.org/2000/svg" p-id="8382" xmlns:xlink="http://www.w3.org/1999/xlink" width="200" height="200"><path d="M925.44 640.426667a34.602667 34.602667 0 0 0-34.645333 34.56v195.413333a20.650667 20.650667 0 0 1-20.608 20.608H153.685333a20.650667 20.650667 0 0 1-20.565333-20.608v-195.498667a34.56 34.56 0 0 0-69.12 0v222.890667c0 34.304 27.904 62.122667 62.08 62.122667h771.84c34.261333 0 62.08-27.904 62.08-62.122667v-222.890667a34.56 34.56 0 0 0-34.56-34.517333z" p-id="8383"></path><path d="M653.909333 184.106667V288.853333h-61.312c-141.482667 0-293.589333 126.72-308.309333 257.792 65.066667-75.52 201.258667-147.84 307.925333-147.84h61.184l0.512 110.208 149.717334-165.248-149.76-159.573333zM263.338667 720.384a338.389333 338.389333 0 0 1-30.165334-139.648c0-193.706667 162.901333-350.677333 363.861334-350.677333V92.288a22.528 22.528 0 0 1 6.613333-19.285333 25.344 25.344 0 0 1 34.773333 0l242.005334 255.744a22.613333 22.613333 0 0 1 6.954666 17.792c0.426667 6.698667-2.133333 13.226667-6.954666 17.834666l-240.682667 254.336a24.277333 24.277333 0 0 1-36.053333 1.365334 22.442667 22.442667 0 0 1-6.656-19.285334l-0.426667-137.429333c-17.152 0-34.218667 1.28-50.901333 3.754667l-3.626667 0.512c-137.173333 21.802667-253.269333 123.52-278.741333 252.757333z" p-id="8384"></path></svg>