<?xml version="1.0" standalone="no"?><!DOCTYPE svg PUBLIC "-//W3C//DTD SVG 1.1//EN" "http://www.w3.org/Graphics/SVG/1.1/DTD/svg11.dtd"><svg t="1675771493096" class="icon" viewBox="0 0 1024 1024" version="1.1" xmlns="http://www.w3.org/2000/svg" p-id="9058" xmlns:xlink="http://www.w3.org/1999/xlink" width="200" height="200"><path d="M575.73961197 512l320.57600633-371.11477917c5.35766283-6.13093325 0.8285045-15.52065042-7.45654044-15.52065171h-97.43212847a20.16027558 20.16027558 0 0 0-15.02354903 6.73850406L512 438.20786598 247.59659964 132.10307318A19.77364101 19.77364101 0 0 0 232.57305061 125.36456912H135.14092214c-8.28504494 0-12.81420326 9.38971716-7.45654044 15.52065171L448.26038803 512l-320.57600633 371.11477917c-5.35766283 6.13093325-0.8285045 15.52065042 7.45654044 15.52065171h97.43212847a20.16027558 20.16027558 0 0 0 15.02354903-6.73850406L512 585.79213402l264.40340036 306.1047928a19.77364101 19.77364101 0 0 0 15.02354903 6.73850406h97.43212847c8.28504494 0 12.81420326-9.38971716 7.45654044-15.52065171L575.73961197 512z" p-id="9059"></path></svg>