<?xml version="1.0" standalone="no"?><!DOCTYPE svg PUBLIC "-//W3C//DTD SVG 1.1//EN" "http://www.w3.org/Graphics/SVG/1.1/DTD/svg11.dtd"><svg t="1689128188985" class="icon" viewBox="0 0 1024 1024" version="1.1" xmlns="http://www.w3.org/2000/svg" p-id="9761" xmlns:xlink="http://www.w3.org/1999/xlink" width="200" height="200"><path d="M959.317333 273.066667a277.077333 277.077333 0 0 0-60.202666-89.514667C849.237333 133.973333 783.786667 106.666667 714.88 106.666667c-78.592 0-152.192 35.285333-202.965333 97.152C461.141333 141.952 387.541333 106.666667 308.949333 106.666667c-68.821333 0-134.272 27.52-184.32 77.44A276.906667 276.906667 0 0 0 64.298667 273.92 278.229333 278.229333 0 0 0 42.666667 384.469333c0.64 82.986667 36.778667 160.341333 99.114666 212.437334 2.816 2.346667 5.504 4.608 8.106667 7.04 13.696 12.117333 53.205333 47.786667 103.253333 92.928a33643.690667 33643.690667 0 0 0 236.032 211.882666 34.474667 34.474667 0 0 0 45.653334 0c31.616-27.776 96.981333-86.784 166.272-149.290666 68.010667-61.312 138.325333-124.842667 179.498666-161.194667C944.298667 545.877333 981.077333 467.626667 981.333333 383.573333a282.154667 282.154667 0 0 0-22.016-110.506666zM563.072 251.733333c37.461333-48.128 92.757333-75.733333 151.808-75.733333 50.218667 0 97.962667 20.096 134.528 56.448 19.2 19.029333 34.389333 41.557333 45.098667 67.029333a215.552 215.552 0 0 1-4.181334 175.146667 210.773333 210.773333 0 0 1-54.741333 70.144l-1.664 1.450667a26333.866667 26333.866667 0 0 0-181.034667 162.645333A37230.933333 37230.933333 0 0 1 512 835.712c-45.568-40.618667-119.808-107.434667-185.429333-166.613333l-43.349334-39.082667a15223.424 15223.424 0 0 0-86.357333-77.696l-2.218667-2.005333c-2.346667-2.090667-4.864-4.266667-7.509333-6.4A209.706667 209.706667 0 0 1 112.896 384a212.309333 212.309333 0 0 1 16.298667-83.413333A208.085333 208.085333 0 0 1 174.506667 233.130667c36.821333-36.693333 84.693333-56.874667 134.570666-56.874667 58.922667 0 114.304 27.477333 151.765334 75.52a65.28 65.28 0 0 0 51.2 24.746667 64.853333 64.853333 0 0 0 51.029333-24.746667z" p-id="9762"></path></svg>