<?xml version="1.0" standalone="no"?><!DOCTYPE svg PUBLIC "-//W3C//DTD SVG 1.1//EN" "http://www.w3.org/Graphics/SVG/1.1/DTD/svg11.dtd"><svg t="1684484450657" class="icon" viewBox="0 0 1024 1024" version="1.1" xmlns="http://www.w3.org/2000/svg" p-id="8148" xmlns:xlink="http://www.w3.org/1999/xlink" width="200" height="200"><path d="M680.533333 42.666667c62.549333 0 84.821333 29.312 84.821334 56.618666v113.450667h170.069333a42.496 42.496 0 1 1 0 84.992h-42.496v595.157333c-0.042667 46.933333-38.101333 85.034667-85.077333 85.034667H212.778667c-46.933333 0-85.077333-38.101333-85.077334-85.034667V297.728h-42.538666a42.496 42.496 0 1 1 0-84.992h170.069333V99.285333C255.232 71.978667 277.504 42.666667 340.053333 42.666667zM212.821333 297.728l-0.042666 595.157333h595.285333L807.893333 297.813333H212.778667z m425.045334 85.034667c23.466667 0 42.538667 19.029333 42.538666 42.496v279.765333a42.496 42.496 0 0 1-85.034666 0V425.258667c0-23.466667 19.029333-42.496 42.496-42.496z m-255.061334 0c23.466667 0 42.496 19.029333 42.496 42.496v279.765333a42.496 42.496 0 0 1-84.992 0V425.258667c0-23.466667 19.029333-42.496 42.496-42.496z m297.6-255.061334H340.266667v85.034667h340.053333V127.701333z" p-id="8149"></path></svg>