<?xml version="1.0" standalone="no"?><!DOCTYPE svg PUBLIC "-//W3C//DTD SVG 1.1//EN" "http://www.w3.org/Graphics/SVG/1.1/DTD/svg11.dtd"><svg t="1675770604286" class="icon" viewBox="0 0 1024 1024" version="1.1" xmlns="http://www.w3.org/2000/svg" p-id="8653" xmlns:xlink="http://www.w3.org/1999/xlink" width="200" height="200"><path d="M841.130667 85.333333A131.669333 131.669333 0 0 1 972.8 217.002667v589.994666A131.669333 131.669333 0 0 1 841.130667 938.666667H182.869333A131.669333 131.669333 0 0 1 51.2 806.997333V217.002667A131.669333 131.669333 0 0 1 182.869333 85.333333h658.261334z m59.562666 262.186667H123.733333v454.144c0.298667 41.088 21.930667 64.896 65.066667 64.896h645.930667c48.981333 0 65.962667-30.549333 65.962666-64.896V347.52z m-337.834666 50.474667c2.986667 0 5.888 0.512 8.874666 1.322666a30.293333 30.293333 0 0 1 20.650667 37.546667l-101.973333 357.205333a30.592 30.592 0 0 1-29.226667 22.016 28.458667 28.458667 0 0 1-8.618667-1.322666 30.421333 30.421333 0 0 1-20.778666-37.546667l102.101333-357.12c0.085333-0.213333 0.085333-0.512 0.213333-0.725333a30.293333 30.293333 0 0 1 28.757334-21.333334z m102.698666 51.413333c8.021333 0 15.530667 2.986667 21.205334 8.533333l127.658666 127.658667a30.464 30.464 0 0 1 0 42.965333l-127.658666 127.488a30.165333 30.165333 0 0 1-21.504 8.96 30.165333 30.165333 0 0 1-21.589334-8.96 30.08 30.08 0 0 1-8.832-21.504c0-8.106667 3.2-15.701333 8.96-21.461333l105.984-106.112-105.984-105.984a30.378667 30.378667 0 0 1 21.76-51.626667z m-306.858666 0a30.464 30.464 0 0 1 21.888 51.498667l-106.069334 106.197333 106.112 105.984a30.464 30.464 0 0 1-43.093333 43.093333l-127.573333-127.701333a30.464 30.464 0 0 1 0-42.965333l127.573333-127.488a30.208 30.208 0 0 1 21.162667-8.618667z m476.16-292.224H186.581333c-41.642667 0-63.274667 21.504-63.274666 64.384v54.442667h777.386666V221.568c0-39.68-18.474667-64.384-65.834666-64.384z" p-id="8654"></path></svg>