<?xml version="1.0" standalone="no"?><!DOCTYPE svg PUBLIC "-//W3C//DTD SVG 1.1//EN" "http://www.w3.org/Graphics/SVG/1.1/DTD/svg11.dtd"><svg t="1657088638073" class="icon" viewBox="0 0 1024 1024" version="1.1" xmlns="http://www.w3.org/2000/svg" p-id="5824" xmlns:xlink="http://www.w3.org/1999/xlink" width="200" height="200"><defs><style type="text/css"></style></defs><path d="M214.631919 265.540737L271.716351 322.582505c-4.991688 19.62544-7.67952 40.232152-7.67952 61.436161v447.972001h495.969002v-21.11868l93.092848 93.092849h-269.039185v47.997a71.931504 71.931504 0 1 1-144.033664 0v-47.997H164.075079a35.965752 35.965752 0 1 1 0-71.974169H192.019999V384.018666c0-41.853384 8.020832-81.872216 22.61192-118.477929zM512 0.042664c19.881424 0 36.008416 16.084328 36.008416 36.008416v29.992792A319.980001 319.980001 0 0 1 831.980001 384.018666v350.612753l-72.016832-72.016832V384.018666a247.963169 247.963169 0 0 0-238.449097-247.792513L512 136.012833a247.451201 247.451201 0 0 0-190.025457 88.613128L270.948399 173.599817a319.382705 319.382705 0 0 1 205.085849-107.555945V36.05108c0-19.924088 16.126992-36.008416 36.008416-36.008416z" p-id="5825"></path><path d="M151.745183 80.720288L1000.502802 929.563236a33.107264 33.107264 0 0 1-46.802408 46.845072L104.90011 127.56536A33.107264 33.107264 0 0 1 151.745183 80.677624z" p-id="5826"></path></svg>