<?xml version="1.0" standalone="no"?><!DOCTYPE svg PUBLIC "-//W3C//DTD SVG 1.1//EN" "http://www.w3.org/Graphics/SVG/1.1/DTD/svg11.dtd"><svg t="1711961446283" class="icon" viewBox="0 0 1024 1024" version="1.1" xmlns="http://www.w3.org/2000/svg" p-id="14709" width="16" height="16" xmlns:xlink="http://www.w3.org/1999/xlink"><path d="M435.03999969 850.23999969h-198l217.60000031-217.59999938a41.20000031 41.20000031 0 1 0-58.32-58.28000062L175.20000031 795.32v-196.32a41.23999969 41.23999969 0 0 0-82.48000031 0v292.51999969c0 22.75999969 18.43999969 41.20000031 41.23999969 41.20000031h300.92000062a41.23999969 41.23999969 0 0 0 0.12-82.48000031zM890.64000031 92.79999969h-300.92000062a41.23999969 41.23999969 0 0 0 0 82.48000031h197.92000031L570.00000031 392.79999969a41.20000031 41.20000031 0 1 0 58.32 58.32l220.95999938-220.99999969V426.39999969a41.23999969 41.23999969 0 0 0 82.48000031 0V133.92000031a41.08000031 41.08000031 0 0 0-41.16-41.20000031z" p-id="14710"></path></svg>