<?xml version="1.0" standalone="no"?><!DOCTYPE svg PUBLIC "-//W3C//DTD SVG 1.1//EN" "http://www.w3.org/Graphics/SVG/1.1/DTD/svg11.dtd"><svg t="1663122961687" class="icon" viewBox="0 0 1024 1024" version="1.1" xmlns="http://www.w3.org/2000/svg" p-id="6631" xmlns:xlink="http://www.w3.org/1999/xlink" width="32" height="32"><path d="M783.573333 578.986667c-23.466667 0-45.866667 4.437333-66.56 12.629333L280.576 92.586667a28.373333 28.373333 0 0 0-42.666667 37.376l429.781334 491.178666a180.650667 180.650667 0 0 0-65.109334 138.922667 181.248 181.248 0 0 0 181.034667 181.034667 181.248 181.248 0 0 0 181.034667-181.034667 181.333333 181.333333 0 0 0-181.034667-181.162667z m0 305.450666a124.501333 124.501333 0 0 1-124.330666-124.330666 124.501333 124.501333 0 0 1 124.330666-124.373334 124.501333 124.501333 0 0 1 124.330667 124.373334 124.501333 124.501333 0 0 1-124.330667 124.330666z" p-id="6632"></path><path d="M783.573333 89.898667a28.373333 28.373333 0 0 0-40.021333 2.602666L306.944 591.616a181.248 181.248 0 0 0-247.552 168.405333 181.248 181.248 0 0 0 181.034667 180.992 181.248 181.248 0 0 0 181.034666-181.034666 180.48 180.48 0 0 0-65.109333-138.922667L786.090667 129.877333a28.245333 28.245333 0 0 0-2.56-39.978666zM240.554667 884.437333a124.501333 124.501333 0 0 1-124.373334-124.330666A124.501333 124.501333 0 0 1 240.554667 635.733333a124.501333 124.501333 0 0 1 124.330666 124.373334 124.501333 124.501333 0 0 1-124.330666 124.330666z" p-id="6633"></path></svg>