<?xml version="1.0" standalone="no"?><!DOCTYPE svg PUBLIC "-//W3C//DTD SVG 1.1//EN" "http://www.w3.org/Graphics/SVG/1.1/DTD/svg11.dtd"><svg t="1663123013912" class="icon" viewBox="0 0 1024 1024" version="1.1" xmlns="http://www.w3.org/2000/svg" p-id="6767" xmlns:xlink="http://www.w3.org/1999/xlink" width="32" height="32"><path d="M941.696 85.845333H82.346667C37.034667 85.845333 0 122.88 0 168.149333v687.701334c0 45.269333 37.034667 82.304 82.304 82.304H941.653333c45.269333 0 82.304-37.034667 82.304-82.304V168.149333c0-45.269333-37.034667-82.304-82.304-82.304z m10.197333 780.330667l-879.786666 0.085333-0.128-251.008 222.549333-216.917333 248.32 308.48a41.088 41.088 0 0 0 53.930667 6.826667l183.466666-123.989334 171.648 75.989334v200.533333z m0-283.050667l-145.152-66.56a41.002667 41.002667 0 0 0-48-1.408L580.693333 635.306667 326.826667 320.768a41.301333 41.301333 0 0 0-60.330667-1.578667l-194.602667 188.416V158.08l879.786667-0.128 0.213333 425.173333z m-227.328-344.874666a115.541333 115.541333 0 0 0-115.413333 115.413333 115.541333 115.541333 0 0 0 115.413333 115.456 115.541333 115.541333 0 0 0 115.456-115.456 115.541333 115.541333 0 0 0-115.456-115.413333z m0 158.549333a43.136 43.136 0 1 1 0.085334-86.314667 43.136 43.136 0 0 1-0.085334 86.314667z" p-id="6768"></path></svg>