<svg xmlns="http://www.w3.org/2000/svg" width="20" height="20" viewBox="0 0 20 20"><g fill="currentColor"><path fill-rule="evenodd" d="M1.25 10a8.75 8.75 0 1 0 17.5 0a8.75 8.75 0 0 0-17.5 0m16 0a7.25 7.25 0 1 1-14.5 0a7.25 7.25 0 0 1 14.5 0" clip-rule="evenodd"/><path fill-rule="evenodd" d="M6.25 10c0 4.522 1.491 8.25 3.75 8.25s3.75-3.728 3.75-8.25S12.259 1.75 10 1.75S6.25 5.478 6.25 10m6 0c0 3.762-1.195 6.75-2.25 6.75S7.75 13.762 7.75 10S8.945 3.25 10 3.25s2.25 2.988 2.25 6.75" clip-rule="evenodd"/><path d="m3.602 5.467l1.006-1.112q.15.136.325.267c1.271.952 3.3 1.54 5.515 1.54c1.891 0 3.653-.427 4.931-1.158q.463-.265.819-.57l.974 1.141q-.466.399-1.048.73c-1.516.868-3.534 1.356-5.676 1.356c-2.522 0-4.865-.678-6.415-1.839a6 6 0 0 1-.431-.355m0 9.082l1.006 1.112q.15-.136.325-.267c1.271-.952 3.3-1.54 5.515-1.54c1.891 0 3.653.427 4.931 1.158q.463.265.819.57l.974-1.141a7 7 0 0 0-1.048-.73c-1.516-.868-3.534-1.356-5.676-1.356c-2.522 0-4.865.678-6.415 1.839a6 6 0 0 0-.431.355M1.75 10.75v-1.5h16.5v1.5z"/></g></svg>