<?xml version="1.0" standalone="no"?><!DOCTYPE svg PUBLIC "-//W3C//DTD SVG 1.1//EN" "http://www.w3.org/Graphics/SVG/1.1/DTD/svg11.dtd"><svg t="1658113631144" class="icon" viewBox="0 0 1024 1024" version="1.1" xmlns="http://www.w3.org/2000/svg" p-id="5824" xmlns:xlink="http://www.w3.org/1999/xlink" width="200" height="200"><defs><style type="text/css"></style></defs><path d="M540.714667 668.714667l-178.816 178.901333c-24.704 24.704-57.6 38.4-92.586667 38.4-34.986667 0-67.925333-13.653333-92.586667-38.4a130.474667 130.474667 0 0 1-38.528-92.586667c0-35.029333 13.610667-67.925333 38.4-92.629333l178.901334-178.901333a35.925333 35.925333 0 0 0 0-50.901334 35.925333 35.925333 0 0 0-50.901334 0l-178.901333 178.773334c-38.4 38.4-59.477333 89.429333-59.477333 143.616s21.077333 105.216 59.477333 143.530666A202.410667 202.410667 0 0 0 269.226667 957.866667a202.069333 202.069333 0 0 0 143.530666-59.392l178.901334-178.901334a35.925333 35.925333 0 0 0 0-50.901333 36.096 36.096 0 0 0-50.901334 0z m357.674666-542.933334a203.136 203.136 0 0 0-287.104 0l-178.901333 178.901334a35.925333 35.925333 0 0 0 0 50.901333c14.08 14.08 36.906667 14.08 50.901333 0l178.901334-178.901333a131.157333 131.157333 0 0 1 223.701333 92.586666c0 35.029333-13.568 67.925333-38.4 92.629334l-178.901333 178.901333a35.925333 35.925333 0 0 0 25.514666 61.44 36.053333 36.053333 0 0 0 25.514667-10.538667l178.901333-178.901333a203.093333 203.093333 0 0 0-0.128-287.018667zM485.546667 591.488l101.973333-101.973333a35.925333 35.925333 0 0 0 0-50.901334 35.925333 35.925333 0 0 0-50.858667 0l-102.016 101.973334a35.925333 35.925333 0 0 0 25.514667 61.44 35.84 35.84 0 0 0 25.386667-10.538667z" p-id="5825"></path></svg>