<?xml version="1.0" standalone="no"?><!DOCTYPE svg PUBLIC "-//W3C//DTD SVG 1.1//EN" "http://www.w3.org/Graphics/SVG/1.1/DTD/svg11.dtd"><svg t="1668062190970" class="icon" viewBox="0 0 1024 1024" version="1.1" xmlns="http://www.w3.org/2000/svg" p-id="20640" xmlns:xlink="http://www.w3.org/1999/xlink" width="200" height="200"><path d="M887.68 972.8H194.986667c-48.938667 0-89.258667-35.84-89.258667-80.64v-130.218667c0-18.517333 13.653333-33.408 34.133333-33.408 20.48 0 34.133333 14.933333 34.133334 33.408v128.853334c0 7.765333 6.613333 13.738667 15.232 13.738666h703.616c8.618667 0 15.189333-5.973333 15.189333-13.738666V133.205333c0-7.765333-6.570667-13.738667-15.189333-13.738666H189.184c-8.618667 0-15.232 5.973333-15.232 13.738666V254.293333c0 18.517333-13.653333 33.408-34.133333 33.408-20.48 0-34.133333-14.933333-34.133334-33.408V131.84c0-44.202667 39.68-80.64 89.258667-80.64h692.053333c48.938667 0 89.258667 35.84 89.258667 80.64v760.917333c0 44.202667-39.68 80.042667-88.576 80.042667z" p-id="20641"></path><path d="M198.570667 411.733333H87.04a34.090667 34.090667 0 0 1-34.133333-34.133333c0-18.901333 15.232-34.133333 34.133333-34.133333h111.530667c18.901333 0 34.133333 15.232 34.133333 34.133333 0 18.901333-15.232 34.133333-34.133333 34.133333zM198.570667 546.133333H87.04a34.090667 34.090667 0 0 1-34.133333-34.133333c0-18.901333 15.232-34.133333 34.133333-34.133333h111.530667c18.901333 0 34.133333 15.232 34.133333 34.133333 0 18.901333-15.232 34.133333-34.133333 34.133333zM198.570667 680.533333H87.04a34.090667 34.090667 0 0 1-34.133333-34.133333c0-18.901333 15.232-34.133333 34.133333-34.133333h111.530667c18.901333 0 34.133333 15.232 34.133333 34.133333 0 18.304-15.232 34.133333-34.133333 34.133333z" p-id="20642"></path><path d="M759.125333 658.176a220.117333 220.117333 0 0 0-117.205333-116.266667l-0.725333-0.298666a143.402667 143.402667 0 0 0 60.202666-116.778667c0-79.573333-64.981333-144.042667-145.237333-144.042667-80.213333 0-145.237333 64.469333-145.237333 144.042667 0 48.085333 23.722667 90.666667 60.202666 116.864l-0.682666 0.298667a218.197333 218.197333 0 0 0-69.973334 46.805333 218.154667 218.154667 0 0 0-47.232 69.418667 214.528 214.528 0 0 0-17.28 80.213333 4.693333 4.693333 0 0 0 4.693334 4.778667l56.021333-0.213334a4.693333 4.693333 0 0 0 4.693333-4.522666c1.152-44.842667 11.306667-80.213333 37.845334-109.354667a162.005333 162.005333 0 0 1 116.949333-51.072c46.976 0 88.832 22.912 116.48 51.072 27.733333 28.16 36.864 64.725333 38.058667 109.568 0.042667 2.56 2.090667 4.522667 4.693333 4.522667h56.32a4.693333 4.693333 0 0 0 4.693333-4.736 215.04 215.04 0 0 0-17.28-80.298667z m-202.965333-151.04a80 80 0 0 1-80.170667-79.530667 80 80 0 0 1 80.170667-79.530666 80 80 0 0 1 80.213333 79.530666 80 80 0 0 1-80.170666 79.530667z" p-id="20643"></path></svg>