<?xml version="1.0" standalone="no"?><!DOCTYPE svg PUBLIC "-//W3C//DTD SVG 1.1//EN" "http://www.w3.org/Graphics/SVG/1.1/DTD/svg11.dtd"><svg t="1697177784921" class="icon" viewBox="0 0 1024 1024" version="1.1" xmlns="http://www.w3.org/2000/svg" p-id="10018" xmlns:xlink="http://www.w3.org/1999/xlink" width="48" height="48"><path d="M746.688 160c64.768 0 117.312 52.48 117.312 117.312v469.376c0 64.768-52.48 117.312-117.312 117.312H277.312A117.312 117.312 0 0 1 160 746.688V277.312c0-64.768 52.48-117.312 117.312-117.312h469.376zM748.8 256H275.2a19.2 19.2 0 0 0-19.2 19.2v473.6a19.2 19.2 0 0 0 19.2 19.2h473.6a19.2 19.2 0 0 0 19.2-19.2V275.2a19.2 19.2 0 0 0-19.2-19.2z" p-id="10019"></path></svg>