<?xml version="1.0" standalone="no"?><!DOCTYPE svg PUBLIC "-//W3C//DTD SVG 1.1//EN" "http://www.w3.org/Graphics/SVG/1.1/DTD/svg11.dtd"><svg t="1675770394707" class="icon" viewBox="0 0 1024 1024" version="1.1" xmlns="http://www.w3.org/2000/svg" p-id="8246" xmlns:xlink="http://www.w3.org/1999/xlink" width="200" height="200"><path d="M383.402667 283.861333c18.005333 0 32.597333-16.042667 32.597333-35.84 0-19.797333-14.592-35.84-32.597333-35.84H96.64c-18.048 0-32.64 16.042667-32.64 35.84 0 19.797333 14.592 35.84 32.64 35.84h286.72z m-1.962667 336.256c18.048 0 32.64-16.042667 32.64-35.84 0-19.797333-14.592-35.84-32.64-35.84H96.64c-18.048 0-32.64 16.042667-32.64 35.84 0 19.797333 14.592 35.84 32.64 35.84H381.44zM927.445333 955.733333c17.962667 0 32.554667-16.042667 32.554667-35.84 0-19.797333-14.592-35.84-32.554667-35.84H96.554667c-17.962667 0-32.554667 16.042667-32.554667 35.84 0 19.797333 14.592 35.84 32.554667 35.84h830.890666z" p-id="8247"></path><path d="M826.624 86.314667l155.733333 148.138666c14.933333 14.933333 14.933333 28.672 0 43.605334l-155.733333 148.138666a30.506667 30.506667 0 0 1-21.802667 9.045334c-14.592 0-22.826667-5.546667-29.098666-13.226667-11.733333-14.506667-10.837333-34.304 0-45.952L871.253333 290.56h-75.52c-180.906667 0-247.893333 168.746667-247.893333 353.493333 0 16.853333-16.554667 32-35.84 32-19.285333 0-35.413333-15.146667-35.413333-32 0-218.88 93.44-425.472 319.146666-425.472h72.106667L775.68 134.272c-11.946667-11.946667-7.978667-34.304 4.053333-46.634667 12.032-12.373333 34.901333-13.269333 46.848-1.365333z" p-id="8248"></path></svg>