<?xml version="1.0" standalone="no"?><!DOCTYPE svg PUBLIC "-//W3C//DTD SVG 1.1//EN" "http://www.w3.org/Graphics/SVG/1.1/DTD/svg11.dtd"><svg t="1668061981743" class="icon" viewBox="0 0 1024 1024" version="1.1" xmlns="http://www.w3.org/2000/svg" p-id="7573" xmlns:xlink="http://www.w3.org/1999/xlink" width="200" height="200"><path d="M793.6 51.2H230.4c-98.816 0-179.2 79.061333-179.2 176.213333v377.173334c0 97.152 80.384 176.213333 179.2 176.213333h15.189333v192l280.661334-192H793.6c98.816 0 179.2-79.061333 179.2-176.213333V227.413333c0-97.152-80.384-176.213333-179.2-176.213333z m107.008 556.16c0 55.594667-46.506667 100.778667-103.594667 100.778667H502.613333l-182.229333 124.8v-124.8H227.242667c-57.088 0-103.552-45.184-103.552-100.778667V225.024c0-55.552 46.506667-100.778667 103.552-100.778667H797.013333c57.130667 0 103.594667 45.226667 103.594667 100.778667v382.336zM456.661333 413.866667a55.466667 55.466667 0 1 0 110.933334 0 55.466667 55.466667 0 0 0-110.933334 0z m-230.4 0a55.466667 55.466667 0 1 0 110.933334 0 55.466667 55.466667 0 0 0-110.933334 0z m460.8 0a55.466667 55.466667 0 1 0 110.933334 0 55.466667 55.466667 0 0 0-110.933334 0z" p-id="7574"></path></svg>