<?xml version="1.0" standalone="no"?><!DOCTYPE svg PUBLIC "-//W3C//DTD SVG 1.1//EN" "http://www.w3.org/Graphics/SVG/1.1/DTD/svg11.dtd"><svg t="1697177740679" class="icon" viewBox="0 0 1024 1024" version="1.1" xmlns="http://www.w3.org/2000/svg" p-id="9570" xmlns:xlink="http://www.w3.org/1999/xlink" width="48" height="48"><path d="M888.490667 63.488a72.106667 72.106667 0 0 1 72.106666 72.021333v539.733334c0 39.808-32.213333 72.021333-71.978666 72.021333h-176.810667l2.474667-81.024h165.290666V144.426667H357.76v167.168l-80.938667 7.168V135.509333c0-39.808 32.213333-72.021333 72.021334-72.021333z m-228.650667 255.317333h50.090667v37.632c-21.888-4.266667-40.149333-18.432-50.090667-37.632z" p-id="9571"></path><path d="M675.157333 276.821333a72.106667 72.106667 0 0 1 72.106667 72.021334v539.733333c0 39.808-32.213333 72.021333-71.978667 72.021333H135.509333a71.936 71.936 0 0 1-72.021333-71.978666V348.842667c0-39.808 32.213333-72.021333 72.021333-72.021334z m-8.917333 80.938667H144.426667v521.813333h521.813333V357.76z" p-id="9572"></path></svg>