<?xml version="1.0" standalone="no"?><!DOCTYPE svg PUBLIC "-//W3C//DTD SVG 1.1//EN" "http://www.w3.org/Graphics/SVG/1.1/DTD/svg11.dtd"><svg t="1674177705416" class="icon" viewBox="0 0 1024 1024" version="1.1" xmlns="http://www.w3.org/2000/svg" p-id="7542" xmlns:xlink="http://www.w3.org/1999/xlink" width="200" height="200"><path d="M678.144 569.984c-0.469333-0.256-0.938667-0.341333-1.365333-0.597333a277.888 277.888 0 0 0 116.650666-226.218667C793.429333 188.928 667.477333 64 512 64S230.570667 188.928 230.570667 343.168a278.229333 278.229333 0 0 0 116.650666 226.346667l-1.365333 0.554666a422.741333 422.741333 0 0 0-135.594667 90.752 422.656 422.656 0 0 0-91.434666 134.485334A415.573333 415.573333 0 0 0 85.333333 950.784a9.045333 9.045333 0 0 0 9.088 9.216h68.096c4.992 0 8.96-3.925333 9.045334-8.789333a334.293333 334.293333 0 0 1 99.626666-229.973334A339.584 339.584 0 0 1 512 622.293333a284.16 284.16 0 0 0 166.144-52.309333zM512 536.746667c-52.053333 0-101.12-20.138667-137.984-56.746667a191.573333 191.573333 0 0 1-57.173333-136.832c0-51.669333 20.309333-100.266667 57.173333-136.874667A194.688 194.688 0 0 1 512 149.546667c52.053333 0 101.12 20.138667 137.984 56.746666a191.573333 191.573333 0 0 1 57.173333 136.874667 191.573333 191.573333 0 0 1-57.173333 136.874667A194.688 194.688 0 0 1 512 536.746667zM924.970667 727.68h-119.338667V609.706667c0-23.125333-15.445333-38.570667-38.570667-38.570667-23.210667 0-38.570667 15.445333-38.570666 38.570667v117.973333h-116.309334c-23.168 0-38.528 15.445333-38.528 38.570667s15.36 38.528 38.528 38.528h116.309334v116.650666c0 23.168 15.445333 38.570667 38.570666 38.570667s38.570667-15.445333 38.570667-38.570667v-116.650666h119.338667c23.168 0 38.570667-15.36 38.570666-38.528s-15.445333-38.570667-38.570666-38.570667z" p-id="7543"></path></svg>