<?xml version="1.0" standalone="no"?><!DOCTYPE svg PUBLIC "-//W3C//DTD SVG 1.1//EN" "http://www.w3.org/Graphics/SVG/1.1/DTD/svg11.dtd"><svg t="1675675077498" class="icon" viewBox="0 0 1024 1024" version="1.1" xmlns="http://www.w3.org/2000/svg" p-id="8369" xmlns:xlink="http://www.w3.org/1999/xlink" width="32" height="32"><path d="M396.970667 279.466667a116.650667 116.650667 0 0 1 233.344 0v233.898666a116.650667 116.650667 0 0 1-233.386667 0V279.509333z m116.650666 428.032a194.56 194.56 0 0 0 194.432-194.133334V279.509333A194.56 194.56 0 0 0 513.621333 85.333333a194.56 194.56 0 0 0-194.432 194.133334v233.898666a194.474667 194.474667 0 0 0 194.432 194.133334z" p-id="8370"></path><path d="M800.682667 435.328a38.869333 38.869333 0 0 0-38.912 38.912v29.952c0 141.226667-115.114667 256.042667-256.64 256.042667-141.525333 0-256.682667-114.816-256.682667-256v-29.994667a38.869333 38.869333 0 0 0-77.781333 0v29.952c0 170.368 128.512 311.04 293.802666 331.093333v105.6a38.869333 38.869333 0 1 0 77.781334 0V835.84c166.997333-18.56 297.301333-160.085333 297.301333-331.648v-29.952a38.869333 38.869333 0 0 0-38.869333-38.912" p-id="8371"></path></svg>