<?xml version="1.0" standalone="no"?><!DOCTYPE svg PUBLIC "-//W3C//DTD SVG 1.1//EN" "http://www.w3.org/Graphics/SVG/1.1/DTD/svg11.dtd"><svg t="1620873412377" class="icon" viewBox="0 0 1267 1024" version="1.1" xmlns="http://www.w3.org/2000/svg" p-id="2544" xmlns:xlink="http://www.w3.org/1999/xlink" width="247.4609375" height="200"><defs><style type="text/css"></style></defs><path d="M366.267056 880.075833a366.132319 366.132319 0 0 1 0-732.533655h220.59405l-53.803427-53.803427A53.803427 53.803427 0 1 1 608.920511 17.606902L753.382712 163.145172a53.803427 53.803427 0 0 1-38.200433 91.734842h-349.722274a258.525466 258.525466 0 0 0 0 517.319949 53.803427 53.803427 0 1 1 0 107.606853zM693.929925 1024a53.803427 53.803427 0 0 1-37.931416-15.872011L511.267291 862.58972a53.803427 53.803427 0 0 1 37.931416-91.734843h349.722274a258.525466 258.525466 0 0 0 0-517.319948 53.803427 53.803427 0 0 1 0-107.606854 366.132319 366.132319 0 0 1 0 732.533656H678.057914l53.803427 53.803426A53.803427 53.803427 0 0 1 693.929925 1024z" fill="" p-id="2545"></path></svg>