<?xml version="1.0" standalone="no"?><!DOCTYPE svg PUBLIC "-//W3C//DTD SVG 1.1//EN" "http://www.w3.org/Graphics/SVG/1.1/DTD/svg11.dtd"><svg t="1639727654007" class="icon" viewBox="0 0 1024 1024" version="1.1" xmlns="http://www.w3.org/2000/svg" p-id="1856" xmlns:xlink="http://www.w3.org/1999/xlink" width="200" height="200"><defs><style type="text/css"></style></defs><path d="M746.27386245 121.9047619C648.0998942 121.9047619 562.27894182 177.8184127 517.41798943 259.7384127 473.20719578 177.8184127 386.73608467 121.9047619 287.91195769 121.9047619c-143.03492063 0-258.7631746 116.3784127-258.7631746 260.06349207 0 68.26666667 26.00634921 130.03174603 68.91682539 176.8431746l397.24698413 399.19746032C501.81417991 963.86031746 509.61608467 967.11111111 517.41798943 967.11111111c7.80190476 0 15.60380952-3.25079365 22.10539683-9.10222222l397.24698413-399.19746032C979.03068785 512.65015873 1005.03703705 450.23492063 1005.03703705 381.96825397 1005.03703705 238.2831746 889.30878309 121.9047619 746.27386245 121.9047619zM887.3583069 516.55111111L517.41798943 892.34285714 147.47767197 516.55111111C114.31957674 481.44253968 94.1646561 433.98095238 94.1646561 381.96825397c0-107.92634921 87.12126984-195.04761905 193.74730159-195.04761905C374.3830688 186.92063492 449.15132277 244.13460317 475.15767197 322.80380952 481.65925928 339.70793651 498.56338626 352.06095238 517.41798943 352.06095238c19.5047619 0 35.75873016-11.70285714 42.9104762-28.60698413l0 0C585.6846561 244.13460317 659.80275134 186.92063492 746.27386245 186.92063492c107.27619048 0 193.74730159 87.12126984 193.74730159 195.04761905C940.67132277 433.98095238 920.51640213 481.44253968 887.3583069 516.55111111z" fill="#d81e06" p-id="1857"></path></svg>